<?xml version="1.0" ?>
<!DOCTYPE svg  PUBLIC '-//W3C//DTD SVG 1.1//EN'  'http://www.w3.org/Graphics/SVG/1.1/DTD/svg11.dtd'>
<!-- Uploaded to: SVG Repo, www.svgrepo.com, Generator: SVG Repo Mixer Tools -->
<svg width="800px" height="800px" viewBox="0 0 32 32" enable-background="new 0 0 32 32" version="1.1" xml:space="preserve" xmlns="http://www.w3.org/2000/svg" xmlns:xlink="http://www.w3.org/1999/xlink">
<g id="Layer_2">
<path d="M26.707,21.293l-2.9987-2.9987c-0.0925-0.0928-0.2034-0.1664-0.3265-0.2173   c-0.2443-0.101-0.5193-0.101-0.7636,0c-0.123,0.0509-0.234,0.1245-0.3265,0.2173L19.293,21.293   c-0.3906,0.3906-0.3906,1.0234,0,1.4141C19.4883,22.9023,19.7441,23,20,23s0.5117-0.0977,0.707-0.293L22,21.4141V27   c0,0.5527,0.4473,1,1,1s1-0.4473,1-1v-5.5859l1.293,1.293C25.4883,22.9023,25.7441,23,26,23s0.5117-0.0977,0.707-0.293   C27.0977,22.3164,27.0977,21.6836,26.707,21.293z" fill="#F5D803"/>
<path d="M11,9C6.1836,9,1,7.748,1,5s5.1836-4,10-4s10,1.252,10,4S15.8164,9,11,9z M11,3C5.751,3,3,4.4863,3,5   s2.751,2,8,2s8-1.4863,8-2S16.249,3,11,3z" fill="#0181B0"/>
<path d="M11,27c-4.8164,0-10-1.252-10-4c0-0.5527,0.4473-1,1-1s1,0.4473,1,1c0,0.5137,2.751,2,8,2   c1.8779,0,3.668-0.2002,5.1758-0.5801c0.5352-0.1338,1.0791,0.1904,1.2139,0.7256c0.1348,0.5361-0.1904,1.0791-0.7256,1.2139   C14.998,26.7783,13.04,27,11,27z" fill="#0181B0"/>
<path d="M11,21c-4.8164,0-10-1.252-10-4c0-0.5527,0.4473-1,1-1s1,0.4473,1,1c0,0.5137,2.751,2,8,2   c2.1846,0,4.2549-0.2715,5.832-0.7637c0.5244-0.166,1.0869,0.1279,1.252,0.6563c0.165,0.5264-0.1289,1.0879-0.6553,1.252   C15.6641,20.6963,13.3809,21,11,21z" fill="#F5D803"/>
<path d="M11,15c-4.8164,0-10-1.252-10-4c0-0.5527,0.4473-1,1-1s1,0.4473,1,1c0,0.5137,2.751,2,8,2s8-1.4863,8-2   c0-0.5527,0.4473-1,1-1s1,0.4473,1,1C21,13.748,15.8164,15,11,15z" fill="#F5D803"/>
<path d="M20,17.6797c-0.5527,0-1-0.4473-1-1V5c0-0.5527,0.4473-1,1-1s1,0.4473,1,1v11.6797   C21,17.2324,20.5527,17.6797,20,17.6797z" fill="#0181B0"/>
<path d="M2,24c-0.5527,0-1-0.4473-1-1V5c0-0.5527,0.4473-1,1-1s1,0.4473,1,1v18C3,23.5527,2.5527,24,2,24z" fill="#0181B0"/>
<path d="M23,31c-4.4111,0-8-3.5889-8-8s3.5889-8,8-8s8,3.5889,8,8S27.4111,31,23,31z M23,17c-3.3086,0-6,2.6914-6,6   s2.6914,6,6,6s6-2.6914,6-6S26.3086,17,23,17z" fill="#00ACBA"/>
</g>
<g id="Layer_3"/>
<g id="Layer_4"/>
<g id="Layer_5"/>
<g id="Layer_6"/>
<g id="Layer_7"/>
<g id="Layer_8"/>
<g id="Layer_9"/>
<g id="Layer_10"/>
<g id="Layer_11"/>
<g id="Layer_12"/>
<g id="Layer_13"/>
<g id="Layer_14"/>
<g id="Layer_15"/>
<g id="Layer_16"/>
<g id="Layer_17"/>
<g id="Layer_18"/>
<g id="Layer_19"/>
<g id="Layer_20"/>
<g id="Layer_21"/>
<g id="Layer_22"/>
<g id="Layer_23"/>
<g id="Layer_24"/>
<g id="Layer_25"/>
<g id="Layer_26"/>
</svg>